<?xml version="1.0" encoding="utf-8"?>
<!-- Generator: Adobe Illustrator 21.1.0, SVG Export Plug-In . SVG Version: 6.00 Build 0)  -->
<svg version="1.1" id="Layer_1" xmlns="http://www.w3.org/2000/svg" xmlns:xlink="http://www.w3.org/1999/xlink" x="0px" y="0px"
	 viewBox="0 0 70 70" style="enable-background:new 0 0 70 70;" xml:space="preserve">
<style type="text/css">
	.st0{fill:#FFFFFF;}
</style>
<g>
	<g>
		<path class="st0" d="M29.5,29.2c0-2.7-1.8-2.7-1.8-2.7h-7.5v5.8h7C28.4,32.2,29.5,31.8,29.5,29.2L29.5,29.2z M29.5,29.2"/>
		<path class="st0" d="M46.8,32.2c-4,0-4.5,4-4.5,4h8.5C50.8,36.2,50.8,32.2,46.8,32.2L46.8,32.2z M46.8,32.2"/>
		<path class="st0" d="M27.6,36.2h-7.5v6.9h6.6c0.1,0,0.3,0,0.5,0c1.1,0,3.1-0.3,3.1-3.4C30.4,36.2,27.6,36.2,27.6,36.2L27.6,36.2z
			 M27.6,36.2"/>
		<path class="st0" d="M35,0C15.7,0,0,15.7,0,35c0,19.3,15.7,35,35,35c19.3,0,35-15.7,35-35C70,15.7,54.3,0,35,0L35,0z M41.2,23.4
			h10.6v3.2H41.2V23.4z M35.8,40.1c0,7.9-8.2,7.6-8.2,7.6H14.2V21.9h13.4c4.1,0,7.3,2.3,7.3,6.9c0,4.6-3.9,4.9-3.9,4.9
			C36.2,33.7,35.8,40.1,35.8,40.1L35.8,40.1z M55.7,39.6H42.3c0,4.8,4.5,4.5,4.5,4.5c4.3,0,4.1-2.8,4.1-2.8h4.5
			c0,7.4-8.8,6.8-8.8,6.8c-10.6,0-9.9-9.9-9.9-9.9s0-9.9,9.9-9.9C57.2,28.5,55.7,39.6,55.7,39.6L55.7,39.6z M55.7,39.6"/>
	</g>
</g>
</svg>
