<?xml version="1.0" encoding="utf-8"?>
<!-- Generator: Adobe Illustrator 21.1.0, SVG Export Plug-In . SVG Version: 6.00 Build 0)  -->
<svg version="1.1" id="Layer_1" xmlns="http://www.w3.org/2000/svg" xmlns:xlink="http://www.w3.org/1999/xlink" x="0px" y="0px"
	 viewBox="0 0 70 70" style="enable-background:new 0 0 70 70;" xml:space="preserve">
<style type="text/css">
	.st0{fill:#FFFFFF;}
</style>
<g>
	<polygon class="st0" points="18.2,42.2 32.9,52.2 32.9,42.7 25.1,37.4 	"/>
	<polygon class="st0" points="51.2,27.3 36.5,18.4 36.5,28 43.9,32.5 	"/>
	<polygon class="st0" points="32.9,27.7 32.9,18.2 18.2,28.2 25.1,33 	"/>
	<polygon class="st0" points="34.5,31.1 28.4,35.2 34.4,39.3 40.7,34.8 	"/>
	<polygon class="st0" points="16.7,31.7 16.7,38.7 21.8,35.2 	"/>
	<path class="st0" d="M35,0C15.7,0,0,15.7,0,35s15.7,35,35,35s35-15.7,35-35S54.3,0,35,0z M56.3,41.1c0,0.1,0,0.3,0,0.4c0,0,0,0,0,0
		c0,0.1-0.1,0.2-0.1,0.3c0,0,0,0.1-0.1,0.1c0,0.1-0.1,0.2-0.2,0.2c0,0-0.1,0.1-0.1,0.1c-0.1,0.1-0.2,0.2-0.2,0.2c0,0,0,0-0.1,0
		L35.5,57c-0.3,0.2-0.7,0.3-1.1,0.3c-0.4,0-0.7-0.1-1-0.3L13.9,43.7c0,0,0,0,0,0l0,0c0,0,0,0,0,0c-0.1-0.1-0.2-0.2-0.3-0.2
		c0,0-0.1-0.1-0.1-0.1c-0.1-0.1-0.1-0.2-0.2-0.2c0,0,0-0.1-0.1-0.1c0-0.1-0.1-0.2-0.1-0.3c0,0,0-0.1,0-0.1c0-0.1-0.1-0.3-0.1-0.4
		V28.2c0-0.1,0-0.3,0.1-0.4c0,0,0-0.1,0-0.1c0-0.1,0.1-0.2,0.1-0.3c0,0,0-0.1,0.1-0.1c0-0.1,0.1-0.2,0.2-0.2c0,0,0.1-0.1,0.1-0.1
		c0.1-0.1,0.2-0.2,0.3-0.2c0,0,0,0,0,0l0,0c0,0,0,0,0,0l19.5-13.3c0.6-0.4,1.4-0.4,2,0l20.1,12.3c0.5,0.3,0.9,0.9,0.9,1.5
		c0,0.1,0,0.3,0,0.4c0,0.1,0,0.2,0,0.4V41.1z"/>
	<polygon class="st0" points="36.5,42.3 36.5,51.8 51.2,41.3 44.1,36.9 	"/>
	<polygon class="st0" points="52.7,37.9 52.7,30.8 47.3,34.6 	"/>
</g>
</svg>
