<?xml version="1.0" encoding="utf-8"?>
<!-- Generator: Adobe Illustrator 21.1.0, SVG Export Plug-In . SVG Version: 6.00 Build 0)  -->
<svg version="1.1" id="Layer_1" xmlns="http://www.w3.org/2000/svg" xmlns:xlink="http://www.w3.org/1999/xlink" x="0px" y="0px"
	 viewBox="0 0 70 70" style="enable-background:new 0 0 70 70;" xml:space="preserve">
<style type="text/css">
	.st0{fill:#FFFFFF;}
</style>
<path class="st0" d="M47,68.8c-0.3,0.1-0.7,0.3-1,0.3c-1.3,0.2-2.2-0.5-2.2-1.8c0-2.5,0-5.1,0-7.6c0-2.9,0-5.8-2.3-8.2
	c1.3-0.2,2.5-0.4,3.7-0.7c7.7-1.8,11.6-6.6,12.1-14.6c0.3-4.1-0.5-7.8-3.2-11c-0.2-0.2-0.2-0.7-0.1-1.1c0.7-2.7,0.5-5.2-0.3-7.8
	c-0.2-0.6-0.6-0.8-1.2-0.8c-2.2,0.1-4.3,0.9-6.1,2.1c-1.7,1.2-3.4,1.4-5.5,1c-4.6-1-9.2-0.7-13.8,0.3c-0.5,0.1-1.2,0-1.7-0.3
	c-2.1-1.2-4.3-2.5-6.8-3c-1.9-0.4-2.1-0.3-2.6,1.6c-0.6,2.3-0.7,4.7,0,7c0.1,0.3,0,0.9-0.2,1.1c-5.1,5.7-3.2,16.3,0.2,20.4
	c2.7,3.2,6.2,4.6,10.1,5.4c0.7,0.1,1.4,0.2,2.1,0.3c-0.6,1.5-1.1,3-1.7,4.4c-0.1,0.3-0.5,0.5-0.8,0.6c-3.8,1.5-7.1,0.4-9.3-3.1
	c-1.2-1.9-2.7-3.3-4.9-3.6c-0.1,0-0.1-0.1-0.2,0c-0.6,0.2-1.2,0.3-1.8,0.5c0.3,0.5,0.6,1.1,1,1.4c1.9,1.2,3.1,2.9,4,5
	c1.3,3.2,3.8,4.6,7,4.9c1.6,0.1,3.2,0,4.9,0c0,2,0.1,4.2,0,6.5c-0.1,1.2-1.3,1.7-2.7,1.2c-3.9-1.3-7.4-3.2-10.5-5.9
	C1.9,53.4-2.4,41.3,1.3,27.1C5,12.9,14.6,4.2,29,1.5c19.9-3.8,38.8,10.7,40.8,31C71.4,48.4,62,63.3,47,68.8L47,68.8z M28.2,51.2
	C28.2,51.3,28.2,51.3,28.2,51.2C28.2,51.3,28.2,51.3,28.2,51.2C28.3,51.3,28.3,51.4,28.2,51.2L28.2,51.2z M19.2,57.5
	c0.3,0.2,0.6,0.4,0.9,0.5c0.1,0,0.3-0.2,0.8-0.5c-0.6-0.2-0.9-0.4-1.2-0.4C19.5,57.1,19.3,57.4,19.2,57.5L19.2,57.5z M22,58
	c0,0.2,0.5,0.5,0.7,0.5c0.2,0,0.5-0.3,0.7-0.5c-0.2-0.2-0.4-0.4-1.1-1C22.2,57.4,22,57.8,22,58L22,58z M25.5,57.2
	c-0.3,0.1-0.5,0.3-0.8,0.5c0.2,0.2,0.3,0.4,0.6,0.7c0.3-0.3,0.6-0.5,0.8-0.8C25.9,57.5,25.7,57.2,25.5,57.2L25.5,57.2z M16.9,56
	c0.2,0.3,0.4,0.6,0.8,1c0.2-0.4,0.5-0.7,0.4-0.7c-0.2-0.3-0.5-0.5-0.8-0.7C17.2,55.6,16.8,55.9,16.9,56L16.9,56z M16.9,56"/>
</svg>
