<?xml version="1.0" encoding="utf-8"?>
<!-- Generator: Adobe Illustrator 21.1.0, SVG Export Plug-In . SVG Version: 6.00 Build 0)  -->
<svg version="1.1" id="Layer_1" xmlns="http://www.w3.org/2000/svg" xmlns:xlink="http://www.w3.org/1999/xlink" x="0px" y="0px"
	 viewBox="0 0 70 70" style="enable-background:new 0 0 70 70;" xml:space="preserve">
<style type="text/css">
	.st0{fill:#FFFFFF;}
</style>
<g>
	<path class="st0" d="M42.7,18.6H27.3c-4.8,0-8.7,3.9-8.7,8.7v15.3c0,4.8,3.9,8.7,8.7,8.7h15.3c4.8,0,8.7-3.9,8.7-8.7V27.3
		C51.4,22.5,47.5,18.6,42.7,18.6z M35,45.1c-5.6,0-10.1-4.5-10.1-10.1c0-5.6,4.5-10.1,10.1-10.1S45.1,29.4,45.1,35
		C45.1,40.6,40.6,45.1,35,45.1z M45.7,26.5c-1.2,0-2.1-0.9-2.1-2.1c0-1.2,0.9-2.1,2.1-2.1c1.2,0,2.1,0.9,2.1,2.1
		C47.8,25.5,46.8,26.5,45.7,26.5z"/>
	<circle class="st0" cx="35" cy="35" r="6.8"/>
	<path class="st0" d="M35,0C15.7,0,0,15.7,0,35c0,19.3,15.7,35,35,35s35-15.7,35-35C70,15.7,54.3,0,35,0z M54.7,42.7
		c0,6.6-5.4,12-12,12H27.3c-6.6,0-12-5.4-12-12V27.3c0-6.6,5.4-12,12-12h15.3c6.6,0,12,5.4,12,12V42.7z"/>
</g>
</svg>
